<svg xmlns="http://www.w3.org/2000/svg" viewBox="0 0 900 900">
<path
   fill="#050301"
   d="M 868.59 450.035 C 868.59 681.164 681.17 868.606 450.01 868.606 C 218.8 868.606 31.4 681.164 31.4 450.035 C 31.4 218.834 218.8 31.394 450.01 31.394 C 681.17 31.394 868.59 218.834 868.59 450.035"
/>
<path
   fill="#fff"
   d="M 443.71 572.414 C 434.37 577.492 422.83 580.223 409.07 580.223 C 368.96 580.223 344.1 564.696 344.1 487.274 L 344.1 238.644 L 214.82 238.644 L 214.82 489.074 C 214.82 621.664 285.62 697.723 409.07 697.723 C 446.51 697.723 474.98 691.535 503.06 677.856 C 474.91 651.035 454.71 615.606 443.71 572.414"
/>
<path
   fill="#f3f13a"
   d="M 605.15 487.235 L 605.15 238.594 L 475.88 238.594 L 475.88 489.035 C 475.88 621.594 546.72 697.672 670.13 697.672 L 721.36 697.672 L 721.36 580.196 L 670.13 580.196 C 630.03 580.196 605.15 564.653 605.15 487.235"
/>
<circle cx="450" cy="450" r="418" fill="red"/>
</svg>
